<svg width="106" height="24" xmlns="http://www.w3.org/2000/svg"><title>.ENV</title><g fill="#000" fill-rule="nonzero"><path d="M40.683 14.02c0 .49-.046.966-.138 1.426-.092.46-.245.87-.46 1.23-.215.36-.502.648-.863.863-.36.215-.808.322-1.345.322-.506 0-.94-.111-1.3-.334a2.87 2.87 0 0 1-.896-.873c-.238-.36-.41-.771-.518-1.231a6.055 6.055 0 0 1-.161-1.38c0-.49.05-.962.15-1.414.1-.453.26-.855.483-1.208.222-.353.517-.636.885-.851.368-.215.82-.322 1.357-.322s.981.107 1.334.322c.353.215.64.494.863.84.222.345.379.743.471 1.195.092.453.138.924.138 1.415Zm.046 4.462V20h3.105V3.578h-3.266v5.98h-.046a3.506 3.506 0 0 0-1.506-1.322 4.676 4.676 0 0 0-2.013-.449c-.874 0-1.64.172-2.3.518a4.93 4.93 0 0 0-1.645 1.368 6.008 6.008 0 0 0-.989 1.966 8.026 8.026 0 0 0-.333 2.312c0 .828.111 1.625.333 2.392.223.767.552 1.445.99 2.035a4.71 4.71 0 0 0 1.667 1.404c.675.345 1.457.517 2.346.517.782 0 1.483-.142 2.104-.425.622-.284 1.124-.748 1.507-1.392h.046Zm8.464-4.416c0-.475.046-.943.138-1.403.092-.46.25-.866.471-1.219.223-.353.518-.64.886-.863.368-.222.828-.333 1.38-.333.552 0 1.016.111 1.392.334.375.222.674.51.896.862.223.353.38.759.472 1.219a7.136 7.136 0 0 1 0 2.794c-.092.453-.25.86-.472 1.22-.222.36-.52.647-.897.862-.375.215-.839.322-1.391.322s-1.012-.107-1.38-.322a2.511 2.511 0 0 1-.886-.863 3.707 3.707 0 0 1-.471-1.218 6.964 6.964 0 0 1-.138-1.392Zm-3.266 0c0 .95.146 1.81.437 2.576a5.588 5.588 0 0 0 1.242 1.966c.537.545 1.18.963 1.932 1.254.751.291 1.595.437 2.53.437.935 0 1.782-.146 2.541-.437a5.413 5.413 0 0 0 1.944-1.253c.537-.545.95-1.2 1.242-1.967.291-.767.437-1.625.437-2.576 0-.95-.146-1.813-.437-2.588a5.568 5.568 0 0 0-1.242-1.977 5.543 5.543 0 0 0-1.944-1.265c-.759-.3-1.606-.449-2.541-.449-.935 0-1.779.15-2.53.449A5.565 5.565 0 0 0 47.606 9.5a5.568 5.568 0 0 0-1.242 1.979c-.291.774-.437 1.636-.437 2.587Zm18.561-5.957V4.544h-3.266v3.565h-1.978v2.185h1.978v7.015c0 .598.1 1.081.299 1.449.2.368.471.652.816.851.346.2.744.333 1.196.402.453.07.932.104 1.438.104.322 0 .652-.008.989-.023.337-.015.644-.046.92-.092v-2.53c-.153.03-.314.054-.483.069a5.847 5.847 0 0 1-.529.023c-.552 0-.92-.092-1.104-.276-.184-.184-.276-.552-.276-1.104v-5.888h2.392V8.109h-2.392Zm11.96 4.669h-5.313c.015-.23.065-.49.15-.782a2.401 2.401 0 0 1 1.264-1.484c.346-.176.779-.264 1.3-.264.797 0 1.391.215 1.782.644.392.43.664 1.058.817 1.886Zm-5.313 2.07h8.579a8.395 8.395 0 0 0-.23-2.645 6.474 6.474 0 0 0-1.046-2.254 5.279 5.279 0 0 0-1.852-1.575c-.751-.392-1.633-.587-2.645-.587-.905 0-1.729.161-2.472.483a5.846 5.846 0 0 0-1.921 1.322 5.83 5.83 0 0 0-1.242 1.99 6.935 6.935 0 0 0-.437 2.484c0 .92.142 1.763.425 2.53a5.745 5.745 0 0 0 1.208 1.978 5.26 5.26 0 0 0 1.909 1.276c.751.3 1.595.449 2.53.449 1.35 0 2.5-.307 3.45-.92.95-.613 1.656-1.633 2.116-3.059h-2.875c-.107.368-.399.717-.874 1.046-.475.33-1.043.495-1.702.495-.92 0-1.625-.238-2.116-.713-.49-.475-.759-1.242-.805-2.3Zm10.511-6.739V20h3.266v-6.233c0-1.211.2-2.081.598-2.61.399-.53 1.043-.794 1.932-.794.782 0 1.326.241 1.633.725.307.483.46 1.215.46 2.196V20h3.266v-7.314c0-.736-.065-1.407-.195-2.012-.13-.606-.357-1.12-.679-1.541-.322-.422-.763-.752-1.323-.99-.56-.237-1.276-.356-2.15-.356-.69 0-1.365.157-2.024.471-.66.315-1.196.817-1.61 1.507h-.069V8.109h-3.105ZM101.863 20h-3.634L94.158 8.109h3.427l2.507 8.119h.046l2.507-8.119h3.243L101.863 20ZM24 0v24H0V0h24ZM10.933 15.89H6.84v5.52h4.198v-.93H7.955v-1.503h2.77v-.93h-2.77v-1.224h2.978v-.934Zm2.146 0h-1.084v5.52h1.035v-3.6l2.226 3.6h1.118v-5.52h-1.036v3.686l-2.259-3.687Zm5.117 0h-1.208l1.973 5.52h1.19l1.976-5.52h-1.182l-1.352 4.085-1.397-4.086ZM5.4 19.68H3.72v1.68H5.4v-1.68Z"/></g></svg>
